<?xml version="1.0" encoding="utf-8"?>
<!-- Generator: Adobe Illustrator 25.4.0, SVG Export Plug-In . SVG Version: 6.00 Build 0)  -->
<svg version="1.1" id="레이어_1" xmlns="http://www.w3.org/2000/svg" xmlns:xlink="http://www.w3.org/1999/xlink" x="0px"
	 y="0px" viewBox="0 0 481.9 88.4" style="enable-background:new 0 0 481.9 88.4;" xml:space="preserve">
<style type="text/css">
	.st0{fill:#FFFFFF;}
	.st1{fill-rule:evenodd;clip-rule:evenodd;fill:#FFFFFF;}
</style>
<g>
	<path class="st0" d="M88.8,34.2c9.9-9.3,14.9-18,12-23.1c-4.1-7.3-22.9-4.9-45,4.8L26.8,0l0.5,23.6C39.9,20.3,47.4,20,47.4,20l0,0
		c-1.8,0.9-3.6,1.9-5.4,2.9c-5.1,2.9-10,5.9-14.4,8.9c0,0-0.1,0.1-0.1,0.1C8.2,45.3-3.2,59.5,0.8,66.7c2.9,5.3,13.5,5.5,27.5,1.6
		l0.4,20.1l78.2-44.2L88.8,34.2z M13.6,60.5c-2.8-5,3.1-13.9,14-22.7l0.6,26C20.8,64.8,15.4,63.8,13.6,60.5z M61.1,18.9
		C74.8,14,86,13.6,88.8,18.7c1.8,3.2,0,7.9-4.2,13.2L61.1,18.9z"/>
	<path class="st1" d="M442.5,48.8c0,1.4-1,6.2-6.8,6.2c-5.9,0-6.8-4.8-6.8-6.2v-0.6c0-1.4,1-6.2,6.8-6.2c5.9,0,6.8,4.8,6.8,6.2V48.8
		L442.5,48.8z M449.1,37.8c0-2.8-1.4-9.2-7.6-11.8c-6.4-2.6-14.9,0.5-17,1.4c-0.2,0.1-0.4,0.3-0.4,0.5c0,0.1,0,0.2,0.1,0.2
		c0,0,0,0,0,0l1.7,4.9c0,0,0,0,0,0c0.1,0.3,0.4,0.4,0.6,0.3c0,0,0,0,0,0h0c2.3-1.2,8.6-3.3,12.5-1.6c3.8,1.7,3.4,5.7,3.5,6.1v1
		c-2.3-1.7-5.1-2.6-7.9-2.6h-0.1c-6.4,0-9.5,3.1-11,5.8c-1.6,2.9-1.6,5.9-1.6,6.5v0c0,0.6,0.1,3.6,1.6,6.5c1.5,2.7,4.6,5.8,11,5.8
		h0.1c3.7,0,6.3-1.4,8.2-2.8v1.6l0,0l0,0v0c0,0.3,0.2,0.5,0.5,0.5l0,0v0h5.3v0l0,0c0.3,0,0.5-0.2,0.5-0.5V41.6h0v-3.6
		C449.1,38,449.1,37.9,449.1,37.8z"/>
	<path class="st1" d="M174,48.1c0,1.5,1,6.6,7,6.6c6,0,7-5.1,7-6.6V37.8c0-1.5-1-6.6-7-6.6c-6,0-7,5.1-7,6.6V48.1z M166.9,38.1
		c0-0.6,0.1-3.8,1.8-6.9c1.7-2.9,5.1-6.2,12.2-6.2l0,0h0.1l0,0c7.1,0,10.6,3.3,12.2,6.2c1.7,3,1.8,6.2,1.8,6.9v9.8
		c0,0.7-0.1,3.8-1.8,6.9c-1.7,2.9-5.1,6.1-12.2,6.2H181c-7.1,0-10.6-3.3-12.2-6.2c-1.7-3-1.8-6.2-1.8-6.9V38.1L166.9,38.1z
		 M164.1,53.8c0-0.2-0.1-0.4-0.3-0.4v0l0,0c0,0,0,0,0,0l-5.3-2.7h0c-0.1,0-0.1-0.1-0.2-0.1c-0.2,0-0.4,0.1-0.4,0.3h0c0,0,0,0,0,0v0
		c-0.9,1.8-2.6,3.7-6.3,3.7c-6,0-7-5.1-7-6.6V37.8c0-1.5,1-6.6,7-6.6c3.7,0,5.5,2,6.3,3.8c0.1,0.2,0.2,0.3,0.5,0.3
		c0.1,0,0.1,0,0.2-0.1l0,0l5.3-2.8v0c0.2-0.1,0.3-0.3,0.3-0.4c0-0.1,0-0.1,0-0.2c-0.1-0.2-0.2-0.4-0.3-0.6
		c-1.7-2.9-5.1-6.1-12.2-6.2h-0.1c-7.1,0-10.6,3.3-12.2,6.2c-1.7,3-1.8,6.2-1.8,6.9v9.8c0,0.7,0.1,3.8,1.8,6.9
		c1.7,2.9,5.1,6.1,12.2,6.2h0.1c7.1,0,10.6-3.3,12.2-6.2c0.1-0.2,0.2-0.4,0.3-0.6h0C164,54,164.1,53.9,164.1,53.8 M227.5,59.7V26.2
		c0-0.3-0.2-0.5-0.5-0.5c0,0,0,0,0,0h-6.1l0,0c-0.3,0-0.5,0.2-0.5,0.5c0,0,0,0,0,0l0,0v11.9h0v10.1c0,1.5-1,6.6-7,6.6
		c-6,0-7-5.1-7-6.6V26.2h0c0-0.3-0.2-0.5-0.5-0.5h0l0,0l-6.1,0h0c-0.3,0-0.5,0.2-0.5,0.5h0v21.6c0,0.7,0.1,3.8,1.6,6.9
		c1.5,2.9,4.6,6.1,11,6.2h0.1c4.2,0,7-1.7,8.9-3.5v2.4l0,0c0,0.3,0.2,0.5,0.5,0.5l0,0v0h5.6C227.3,60.2,227.5,60,227.5,59.7
		L227.5,59.7"/>
	<path class="st1" d="M284.6,48.8c0,1.4-1,6.2-6.8,6.2c-5.9,0-6.8-4.8-6.8-6.2v-0.6c0-1.4,1-6.2,6.8-6.2c5.9,0,6.8,4.8,6.8,6.2V48.8
		L284.6,48.8z M291.1,37.8c0-2.8-1.4-9.2-7.6-11.8c-6.4-2.6-14.9,0.5-17,1.4c-0.2,0.1-0.4,0.3-0.4,0.5c0,0.1,0,0.2,0.1,0.2
		c0,0,0,0,0,0l1.7,4.9c0,0,0,0,0,0c0.1,0.3,0.4,0.4,0.6,0.3c0,0,0,0,0,0h0c2.3-1.2,8.6-3.3,12.5-1.6c3.8,1.7,3.4,5.7,3.5,6.1v1
		c-2.3-1.7-5.1-2.6-7.9-2.6h-0.1c-6.4,0-9.5,3.1-11,5.8c-1.6,2.9-1.6,5.9-1.6,6.5v0c0,0.6,0.1,3.6,1.6,6.5c1.5,2.7,4.6,5.8,11,5.8
		h0.1c3.7,0,6.3-1.4,8.2-2.8v1.6l0,0l0,0v0c0,0.3,0.2,0.5,0.5,0.5l0,0v0h5.3v0l0,0c0.3,0,0.5-0.2,0.5-0.5V41.6h0v-3.6
		C291.1,38,291.1,37.9,291.1,37.8z"/>
	<path class="st1" d="M323.9,38.2c0-0.6-0.1-3.8-1.6-6.9c-1.5-2.9-4.6-6.1-11-6.2v0c0,0,0,0,0,0c0,0,0,0,0,0v0c-4.2,0-7,1.7-8.8,3.5
		v-2.3h0c0,0,0,0,0,0c0-0.3-0.2-0.5-0.5-0.5l0,0h-5.7v0c-0.3,0-0.5,0.2-0.5,0.5l0,0h0v33.5h0c0,0.3,0.2,0.5,0.5,0.5l0,0v0h6.1l0,0
		c0.3,0,0.5-0.2,0.5-0.5l0,0V37.5c0.1-1.8,1.4-6.2,7-6.2c6,0,7,5.1,7,6.6v21.9h0c0,0,0,0,0,0c0,0.3,0.2,0.5,0.5,0.5h6.1
		c0.3,0,0.5-0.2,0.5-0.5l0,0L323.9,38.2L323.9,38.2z"/>
	<path class="st1" d="M253.2,48.1c0,1.5-1,6.6-7,6.6c-6,0-7-5.1-7-6.6V37.8c0-1.5,1-6.6,7-6.6c6,0,7,5.1,7,6.6V48.1z M258.7,31.2
		c-1.5-2.9-4.6-6.1-11-6.2h-0.1c-4.2,0-7,1.7-8.9,3.5v-2.4h0c0,0,0,0,0,0c0-0.3-0.2-0.5-0.5-0.5l0,0c0,0,0,0,0,0h-5.6l0,0
		c0,0,0,0,0,0c-0.3,0-0.5,0.2-0.5,0.5c0,0,0,0,0,0c0,0,0,0,0,0h0v45.6h0c0,0.3,0.2,0.5,0.5,0.5h6.1v0c0.2,0,0.4-0.2,0.4-0.4h0v0l0,0
		v0v-14c1.8,1.6,4.5,3.1,8.4,3.1h0.1c6.4,0,9.5-3.3,11-6.2c1.6-3,1.6-6.2,1.6-6.9v-9.8C260.3,37.4,260.2,34.2,258.7,31.2z"/>
	<path class="st1" d="M398.8,48.1c0,1.5-1,6.6-7,6.6c-6,0-7-5.1-7-6.6V37.8c0-1.5,1-6.6,7-6.6c6,0,7,5.1,7,6.6V48.1z M404.2,31.2
		c-1.5-2.9-4.6-6.1-11-6.2h-0.1c-4.2,0-7,1.7-8.9,3.5v-2.4h0c0,0,0,0,0,0c0-0.3-0.2-0.5-0.5-0.5l0,0c0,0,0,0,0,0h-5.6l0,0
		c0,0,0,0,0,0c-0.3,0-0.5,0.2-0.5,0.5c0,0,0,0,0,0c0,0,0,0,0,0h0v45.6h0c0,0.3,0.2,0.5,0.5,0.5h6.1v0c0.2,0,0.4-0.2,0.4-0.4h0v0l0,0
		v0v-14c1.8,1.6,4.5,3.1,8.4,3.1h0.1c6.4,0,9.5-3.3,11-6.2c1.6-3,1.6-6.2,1.6-6.9v-9.8C405.9,37.4,405.8,34.2,404.2,31.2z"/>
	<path class="st1" d="M349.3,37.9c0,1.3-1,6.2-7,6.3c-6,0-7-4.9-7-6.3v-0.4c0-1.4,1-6.2,7-6.3c6,0,7,4.9,7,6.3V37.9z M359.8,25.3
		L359.8,25.3c-3.6-0.1-6,1.4-7.5,3c-2-1.8-5.2-3.2-10-3.2v0h-0.1v0c-7.1,0-10.6,3.1-12.2,5.9c-1.7,2.9-1.8,5.9-1.8,6.5v0.3
		c0,0.6,0.1,3.7,1.8,6.5c0.7,1.2,1.9,2.5,3.5,3.6c-2.7,1.5-5,4.3-5,9.1v2.6c0,0.3,0.2,0.5,0.5,0.5v0h21.3v0c1.9,0,3.5,1.6,3.5,3.5
		c0,2-1.3,3-3.7,3.8c-0.3,0.1-0.5,0.4-0.3,0.9c0.1,0.2,1.9,3.9,2,4.1c0.1,0.3,0.5,0.4,0.8,0.3c4.2-1.2,7-4.8,7-9.1
		c0-5.1-4.2-9.3-9.3-9.3h-15c0.8-4.2,5.7-4.2,6.3-4.1v0c0.2,0,0.5,0,0.7,0h0.1c7.1,0,10.6-3.1,12.2-5.9c1.7-2.9,1.8-5.9,1.8-6.5
		v-0.3c0-0.5-0.1-2.8-1.1-5.2c0.9-0.7,2.4-1.2,4.5-1.1l0,0c0.3,0,0.5-0.2,0.5-0.5v-5C360.3,25.5,360.1,25.3,359.8,25.3L359.8,25.3z"
		/>
	<g>
		<g>
			<g>
				<g>
					<path class="st1" d="M417.3,10.9c0-0.3-0.2-0.5-0.5-0.5c0,0,0,0,0,0h-6.1l0,0c-0.3,0-0.5,0.2-0.5,0.5c0,0,0,0,0,0l0,0l0,48.9
						c0,0.3,0.2,0.5,0.5,0.5c0,0,0,0,0,0h6.1l0,0c0.3,0,0.5-0.2,0.5-0.5c0,0,0,0,0,0l0,0L417.3,10.9z"/>
				</g>
			</g>
		</g>
	</g>
	<path class="st1" d="M481.5,25.9C481.5,25.9,481.5,25.9,481.5,25.9l-6.1,0l0,0c-0.3,0-0.6,0.2-0.7,0.5c0,0,0,0,0,0l0,0l-8.7,27.4
		l-7.4-27.5c-0.1-0.3-0.4-0.5-0.6-0.5c0,0,0,0,0,0H452l0,0c-0.3,0-0.4,0.2-0.4,0.5c0,0,0,0,0,0l0,0l8.9,33.3
		c0.1,0.3,0.4,0.5,0.6,0.5c0,0,0,0,0,0h2.8l-4.1,13.1c-0.1,0.3,0.1,0.5,0.3,0.5c0,0,0,0,0,0h6.1l0,0c0.3,0,0.6-0.2,0.7-0.5
		c0,0,0,0,0,0l0,0l14.9-46.9C482,26.2,481.8,25.9,481.5,25.9z"/>
</g>
</svg>
